<svg data-v-423bf9ae="" xmlns="http://www.w3.org/2000/svg" viewBox="0 0 633 90" class="iconLeft"><!----><!----><!----><g data-v-423bf9ae="" id="7fd30bb7-7a6b-49c0-ba2c-9427d634254d" fill="#04291D" transform="matrix(6.054490566253662,0,0,6.054490566253662,121.08087158203125,-10.42885971069336)"><path d="M7.15 14L7.15 14Q6.96 14 6.89 13.80L6.89 13.80L6.50 12.50L6.50 12.50Q6.48 12.43 6.41 12.43L6.41 12.43L2.98 12.43L2.98 12.43Q2.91 12.43 2.90 12.50L2.90 12.50L2.51 13.80L2.51 13.80Q2.44 14 2.24 14L2.24 14L0.62 14L0.62 14Q0.49 14 0.43 13.92L0.43 13.92L0.43 13.92Q0.38 13.85 0.42 13.73L0.42 13.73L3.40 4.40L3.40 4.40Q3.47 4.20 3.67 4.20L3.67 4.20L5.73 4.20L5.73 4.20Q5.92 4.20 5.99 4.40L5.99 4.40L8.97 13.73L8.97 13.73Q8.99 13.76 8.99 13.82L8.99 13.82L8.99 13.82Q8.99 13.90 8.93 13.95L8.93 13.95L8.93 13.95Q8.88 14 8.78 14L8.78 14L7.15 14ZM3.39 10.81L3.39 10.81Q3.37 10.91 3.46 10.91L3.46 10.91L5.94 10.91L5.94 10.91Q6.02 10.91 6.01 10.81L6.01 10.81L4.75 6.54L4.75 6.54Q4.73 6.48 4.70 6.48L4.70 6.48L4.70 6.48Q4.66 6.48 4.63 6.54L4.63 6.54L3.39 10.81ZM13.87 6.69L13.87 6.69Q14.99 6.69 15.68 7.38L15.68 7.38L15.68 7.38Q16.37 8.06 16.37 9.24L16.37 9.24L16.37 13.76L16.37 13.76Q16.37 14 16.13 14L16.13 14L14.63 14L14.63 14Q14.39 14 14.39 13.76L14.39 13.76L14.39 9.65L14.39 9.65Q14.39 9.09 14.08 8.74L14.08 8.74L14.08 8.74Q13.78 8.39 13.26 8.39L13.26 8.39L13.26 8.39Q12.74 8.39 12.42 8.74L12.42 8.74L12.42 8.74Q12.10 9.09 12.10 9.65L12.10 9.65L12.10 13.76L12.10 13.76Q12.10 14 11.86 14L11.86 14L10.36 14L10.36 14Q10.12 14 10.12 13.76L10.12 13.76L10.12 7.04L10.12 7.04Q10.12 6.80 10.36 6.80L10.36 6.80L11.86 6.80L11.86 6.80Q12.10 6.80 12.10 7.04L12.10 7.04L12.10 7.43L12.10 7.43Q12.10 7.49 12.12 7.50L12.12 7.50L12.12 7.50Q12.15 7.52 12.18 7.48L12.18 7.48L12.18 7.48Q12.75 6.69 13.87 6.69L13.87 6.69ZM21.53 6.69L21.53 6.69Q22.65 6.69 23.34 7.38L23.34 7.38L23.34 7.38Q24.02 8.06 24.02 9.24L24.02 9.24L24.02 13.76L24.02 13.76Q24.02 14 23.79 14L23.79 14L22.29 14L22.29 14Q22.05 14 22.05 13.76L22.05 13.76L22.05 9.65L22.05 9.65Q22.05 9.09 21.74 8.74L21.74 8.74L21.74 8.74Q21.43 8.39 20.92 8.39L20.92 8.39L20.92 8.39Q20.40 8.39 20.08 8.74L20.08 8.74L20.08 8.74Q19.75 9.09 19.75 9.65L19.75 9.65L19.75 13.76L19.75 13.76Q19.75 14 19.52 14L19.52 14L18.02 14L18.02 14Q17.78 14 17.78 13.76L17.78 13.76L17.78 7.04L17.78 7.04Q17.78 6.80 18.02 6.80L18.02 6.80L19.52 6.80L19.52 6.80Q19.75 6.80 19.75 7.04L19.75 7.04L19.75 7.43L19.75 7.43Q19.75 7.49 19.78 7.50L19.78 7.50L19.78 7.50Q19.81 7.52 19.84 7.48L19.84 7.48L19.84 7.48Q20.41 6.69 21.53 6.69L21.53 6.69ZM28.91 12.45L28.91 12.45Q29.83 12.40 30.32 11.80L30.32 11.80L30.32 11.80Q30.41 11.70 30.51 11.70L30.51 11.70L30.51 11.70Q30.59 11.70 30.66 11.77L30.66 11.77L31.46 12.54L31.46 12.54Q31.54 12.63 31.54 12.71L31.54 12.71L31.54 12.71Q31.54 12.81 31.49 12.88L31.49 12.88L31.49 12.88Q31.02 13.45 30.30 13.78L30.30 13.78L30.30 13.78Q29.58 14.11 28.73 14.11L28.73 14.11L28.73 14.11Q27.44 14.11 26.59 13.45L26.59 13.45L26.59 13.45Q25.75 12.80 25.45 11.65L25.45 11.65L25.45 11.65Q25.28 11.03 25.28 10.35L25.28 10.35L25.28 10.35Q25.28 9.53 25.44 8.97L25.44 8.97L25.44 8.97Q25.72 7.94 26.57 7.31L26.57 7.31L26.57 7.31Q27.41 6.68 28.57 6.68L28.57 6.68L28.57 6.68Q29.95 6.68 30.75 7.49L30.75 7.49L30.75 7.49Q31.56 8.30 31.79 9.77L31.79 9.77L31.79 9.77Q31.85 10.23 31.88 10.79L31.88 10.79L31.88 10.79Q31.88 11.03 31.64 11.03L31.64 11.03L27.34 11.03L27.34 11.03Q27.26 11.03 27.26 11.12L27.26 11.12L27.26 11.12Q27.30 11.41 27.36 11.55L27.36 11.55L27.36 11.55Q27.50 11.98 27.91 12.21L27.91 12.21L27.91 12.21Q28.32 12.45 28.91 12.45L28.91 12.45ZM28.55 8.39L28.55 8.39Q28.10 8.39 27.80 8.60L27.80 8.60L27.80 8.60Q27.50 8.82 27.38 9.21L27.38 9.21L27.38 9.21Q27.31 9.48 27.30 9.56L27.30 9.56L27.30 9.56Q27.29 9.65 27.37 9.65L27.37 9.65L29.75 9.65L29.75 9.65Q29.82 9.65 29.82 9.59L29.82 9.59L29.82 9.59Q29.82 9.44 29.76 9.27L29.76 9.27L29.76 9.27Q29.64 8.86 29.33 8.62L29.33 8.62L29.33 8.62Q29.02 8.39 28.55 8.39L28.55 8.39ZM33.36 14L33.36 14Q33.12 14 33.12 13.76L33.12 13.76L33.12 4.44L33.12 4.44Q33.12 4.20 33.36 4.20L33.36 4.20L34.86 4.20L34.86 4.20Q35.10 4.20 35.10 4.44L35.10 4.44L35.10 13.76L35.10 13.76Q35.10 14 34.86 14L34.86 14L33.36 14ZM39.77 14.11L39.77 14.11Q38.58 14.11 37.74 13.50L37.74 13.50L37.74 13.50Q36.90 12.88 36.60 11.82L36.60 11.82L36.60 11.82Q36.40 11.16 36.40 10.39L36.40 10.39L36.40 10.39Q36.40 9.53 36.61 8.90L36.61 8.90L36.61 8.90Q36.93 7.87 37.77 7.28L37.77 7.28L37.77 7.28Q38.60 6.69 39.79 6.69L39.79 6.69L39.79 6.69Q40.94 6.69 41.75 7.28L41.75 7.28L41.75 7.28Q42.57 7.87 42.90 8.89L42.90 8.89L42.90 8.89Q43.11 9.53 43.11 10.36L43.11 10.36L43.11 10.36Q43.11 11.09 42.92 11.77L42.92 11.77L42.92 11.77Q42.60 12.87 41.77 13.49L41.77 13.49L41.77 13.49Q40.94 14.11 39.77 14.11L39.77 14.11ZM39.77 12.42L39.77 12.42Q40.22 12.42 40.54 12.14L40.54 12.14L40.54 12.14Q40.87 11.86 41.01 11.37L41.01 11.37L41.01 11.37Q41.12 10.99 41.12 10.39L41.12 10.39L41.12 10.39Q41.12 9.80 41.01 9.39L41.01 9.39L41.01 9.39Q40.87 8.92 40.54 8.65L40.54 8.65L40.54 8.65Q40.22 8.39 39.75 8.39L39.75 8.39L39.75 8.39Q39.28 8.39 38.96 8.65L38.96 8.65L38.96 8.65Q38.64 8.92 38.50 9.39L38.50 9.39L38.50 9.39Q38.39 9.80 38.39 10.39L38.39 10.39L38.39 10.39Q38.39 10.96 38.50 11.37L38.50 11.37L38.50 11.37Q38.64 11.86 38.97 12.14L38.97 12.14L38.97 12.14Q39.30 12.42 39.77 12.42L39.77 12.42ZM47.85 12.45L47.85 12.45Q48.78 12.40 49.27 11.80L49.27 11.80L49.27 11.80Q49.35 11.70 49.45 11.70L49.45 11.70L49.45 11.70Q49.53 11.70 49.60 11.77L49.60 11.77L50.40 12.54L50.40 12.54Q50.48 12.63 50.48 12.71L50.48 12.71L50.48 12.71Q50.48 12.81 50.43 12.88L50.43 12.88L50.43 12.88Q49.97 13.45 49.25 13.78L49.25 13.78L49.25 13.78Q48.52 14.11 47.67 14.11L47.67 14.11L47.67 14.11Q46.38 14.11 45.54 13.45L45.54 13.45L45.54 13.45Q44.69 12.80 44.39 11.65L44.39 11.65L44.39 11.65Q44.23 11.03 44.23 10.35L44.23 10.35L44.23 10.35Q44.23 9.53 44.38 8.97L44.38 8.97L44.38 8.97Q44.66 7.94 45.51 7.31L45.51 7.31L45.51 7.31Q46.35 6.68 47.52 6.68L47.52 6.68L47.52 6.68Q48.89 6.68 49.69 7.49L49.69 7.49L49.69 7.49Q50.50 8.30 50.74 9.77L50.74 9.77L50.74 9.77Q50.79 10.23 50.82 10.79L50.82 10.79L50.82 10.79Q50.82 11.03 50.58 11.03L50.58 11.03L46.28 11.03L46.28 11.03Q46.20 11.03 46.20 11.12L46.20 11.12L46.20 11.12Q46.24 11.41 46.30 11.55L46.30 11.55L46.30 11.55Q46.44 11.98 46.85 12.21L46.85 12.21L46.85 12.21Q47.26 12.45 47.85 12.45L47.85 12.45ZM47.49 8.39L47.49 8.39Q47.04 8.39 46.74 8.60L46.74 8.60L46.74 8.60Q46.44 8.82 46.33 9.21L46.33 9.21L46.33 9.21Q46.26 9.48 46.24 9.56L46.24 9.56L46.24 9.56Q46.23 9.65 46.31 9.65L46.31 9.65L48.69 9.65L48.69 9.65Q48.76 9.65 48.76 9.59L48.76 9.59L48.76 9.59Q48.76 9.44 48.71 9.27L48.71 9.27L48.71 9.27Q48.58 8.86 48.27 8.62L48.27 8.62L48.27 8.62Q47.96 8.39 47.49 8.39L47.49 8.39ZM54.91 14.10L54.91 14.10Q53.97 14.10 53.27 13.83L53.27 13.83L53.27 13.83Q52.57 13.57 52.19 13.09L52.19 13.09L52.19 13.09Q51.81 12.61 51.81 12.01L51.81 12.01L51.81 11.94L51.81 11.94Q51.81 11.70 52.05 11.70L52.05 11.70L53.47 11.70L53.47 11.70Q53.70 11.70 53.70 11.79L53.70 11.79L53.70 11.89L53.70 11.89Q53.70 12.19 54.04 12.41L54.04 12.41L54.04 12.41Q54.38 12.63 54.89 12.63L54.89 12.63L54.89 12.63Q55.37 12.63 55.66 12.45L55.66 12.45L55.66 12.45Q55.96 12.26 55.96 11.97L55.96 11.97L55.96 11.97Q55.96 11.72 55.71 11.59L55.71 11.59L55.71 11.59Q55.45 11.47 54.88 11.33L54.88 11.33L54.88 11.33Q54.19 11.14 53.86 11.00L53.86 11.00L53.86 11.00Q52.95 10.70 52.42 10.25L52.42 10.25L52.42 10.25Q51.88 9.80 51.88 8.96L51.88 8.96L51.88 8.96Q51.88 7.92 52.70 7.31L52.70 7.31L52.70 7.31Q53.51 6.71 54.82 6.71L54.82 6.71L54.82 6.71Q55.72 6.71 56.40 6.99L56.40 6.99L56.40 6.99Q57.08 7.28 57.45 7.80L57.45 7.80L57.45 7.80Q57.82 8.32 57.82 8.97L57.82 8.97L57.82 8.97Q57.82 9.04 57.76 9.09L57.76 9.09L57.76 9.09Q57.69 9.14 57.58 9.14L57.58 9.14L56.21 9.14L56.21 9.14Q55.97 9.14 55.97 9.06L55.97 9.06L55.97 8.97L55.97 8.97Q55.97 8.67 55.66 8.46L55.66 8.46L55.66 8.46Q55.36 8.25 54.84 8.25L54.84 8.25L54.84 8.25Q54.38 8.25 54.08 8.41L54.08 8.41L54.08 8.41Q53.77 8.58 53.77 8.88L53.77 8.88L53.77 8.88Q53.77 9.16 54.06 9.30L54.06 9.30L54.06 9.30Q54.35 9.44 55.01 9.59L55.01 9.59L55.01 9.59Q55.41 9.67 55.79 9.80L55.79 9.80L55.79 9.80Q56.80 10.09 57.37 10.56L57.37 10.56L57.37 10.56Q57.95 11.02 57.95 11.90L57.95 11.90L57.95 11.90Q57.95 12.94 57.12 13.52L57.12 13.52L57.12 13.52Q56.29 14.10 54.91 14.10L54.91 14.10ZM60.20 14.06L60.20 14.06Q59.65 14.06 59.29 13.70L59.29 13.70L59.29 13.70Q58.93 13.34 58.93 12.84L58.93 12.84L58.93 12.84Q58.93 12.35 59.32 11.99L59.32 11.99L59.32 11.99Q59.71 11.63 60.20 11.63L60.20 11.63L60.20 11.63Q60.72 11.63 61.11 11.99L61.11 11.99L61.11 11.99Q61.50 12.35 61.50 12.84L61.50 12.84L61.50 12.84Q61.50 13.34 61.12 13.70L61.12 13.70L61.12 13.70Q60.75 14.06 60.20 14.06L60.20 14.06ZM67.16 4.44L67.16 4.44Q67.16 4.20 67.40 4.20L67.40 4.20L68.89 4.20L68.89 4.20Q69.13 4.20 69.13 4.44L69.13 4.44L69.13 13.76L69.13 13.76Q69.13 14 68.89 14L68.89 14L67.40 14L67.40 14Q67.16 14 67.16 13.76L67.16 13.76L67.16 13.38L67.16 13.38Q67.16 13.33 67.12 13.32L67.12 13.32L67.12 13.32Q67.09 13.31 67.06 13.36L67.06 13.36L67.06 13.36Q66.49 14.11 65.46 14.11L65.46 14.11L65.46 14.11Q64.51 14.11 63.78 13.54L63.78 13.54L63.78 13.54Q63.04 12.98 62.76 12.05L62.76 12.05L62.76 12.05Q62.52 11.38 62.52 10.37L62.52 10.37L62.52 10.37Q62.52 9.34 62.79 8.64L62.79 8.64L62.79 8.64Q63.10 7.74 63.81 7.21L63.81 7.21L63.81 7.21Q64.51 6.68 65.46 6.68L65.46 6.68L65.46 6.68Q66.50 6.68 67.06 7.36L67.06 7.36L67.06 7.36Q67.09 7.41 67.12 7.39L67.12 7.39L67.12 7.39Q67.16 7.38 67.16 7.32L67.16 7.32L67.16 4.44ZM66.86 11.79L66.86 11.79Q67.14 11.27 67.14 10.40L67.14 10.40L67.14 10.40Q67.14 9.48 66.85 8.96L66.85 8.96L66.85 8.96Q66.50 8.41 65.91 8.41L65.91 8.41L65.91 8.41Q65.27 8.41 64.93 8.95L64.93 8.95L64.93 8.95Q64.60 9.51 64.60 10.42L64.60 10.42L64.60 10.42Q64.60 11.24 64.89 11.79L64.89 11.79L64.89 11.79Q65.23 12.39 65.91 12.39L65.91 12.39L65.91 12.39Q66.53 12.39 66.86 11.79L66.86 11.79ZM74.09 12.45L74.09 12.45Q75.01 12.40 75.50 11.80L75.50 11.80L75.50 11.80Q75.59 11.70 75.68 11.70L75.68 11.70L75.68 11.70Q75.77 11.70 75.84 11.77L75.84 11.77L76.64 12.54L76.64 12.54Q76.72 12.63 76.72 12.71L76.72 12.71L76.72 12.71Q76.72 12.81 76.66 12.88L76.66 12.88L76.66 12.88Q76.20 13.45 75.48 13.78L75.48 13.78L75.48 13.78Q74.76 14.11 73.91 14.11L73.91 14.11L73.91 14.11Q72.62 14.11 71.77 13.45L71.77 13.45L71.77 13.45Q70.92 12.80 70.63 11.65L70.63 11.65L70.63 11.65Q70.46 11.03 70.46 10.35L70.46 10.35L70.46 10.35Q70.46 9.53 70.62 8.97L70.62 8.97L70.62 8.97Q70.90 7.94 71.74 7.31L71.74 7.31L71.74 7.31Q72.59 6.68 73.75 6.68L73.75 6.68L73.75 6.68Q75.12 6.68 75.93 7.49L75.93 7.49L75.93 7.49Q76.73 8.30 76.97 9.77L76.97 9.77L76.97 9.77Q77.03 10.23 77.06 10.79L77.06 10.79L77.06 10.79Q77.06 11.03 76.82 11.03L76.82 11.03L72.52 11.03L72.52 11.03Q72.44 11.03 72.44 11.12L72.44 11.12L72.44 11.12Q72.48 11.41 72.53 11.55L72.53 11.55L72.53 11.55Q72.67 11.98 73.09 12.21L73.09 12.21L73.09 12.21Q73.50 12.45 74.09 12.45L74.09 12.45ZM73.72 8.39L73.72 8.39Q73.28 8.39 72.98 8.60L72.98 8.60L72.98 8.60Q72.67 8.82 72.56 9.21L72.56 9.21L72.56 9.21Q72.49 9.48 72.48 9.56L72.48 9.56L72.48 9.56Q72.46 9.65 72.55 9.65L72.55 9.65L74.93 9.65L74.93 9.65Q75.00 9.65 75.00 9.59L75.00 9.59L75.00 9.59Q75.00 9.44 74.94 9.27L74.94 9.27L74.94 9.27Q74.82 8.86 74.51 8.62L74.51 8.62L74.51 8.62Q74.20 8.39 73.72 8.39L73.72 8.39ZM80.33 14L80.33 14Q80.14 14 80.07 13.80L80.07 13.80L77.90 7.07L77.90 7.07Q77.88 7.04 77.88 6.99L77.88 6.99L77.88 6.99Q77.88 6.90 77.94 6.85L77.94 6.85L77.94 6.85Q77.99 6.80 78.09 6.80L78.09 6.80L79.74 6.80L79.74 6.80Q79.94 6.80 80.01 7.01L80.01 7.01L81.13 11.21L81.13 11.21Q81.14 11.27 81.19 11.27L81.19 11.27L81.19 11.27Q81.23 11.27 81.24 11.21L81.24 11.21L82.36 7.01L82.36 7.01Q82.43 6.80 82.63 6.80L82.63 6.80L84.28 6.82L84.28 6.82Q84.41 6.82 84.46 6.89L84.46 6.89L84.46 6.89Q84.52 6.97 84.48 7.08L84.48 7.08L82.32 13.80L82.32 13.80Q82.25 14 82.04 14L82.04 14L80.33 14Z"></path></g><defs data-v-423bf9ae=""><linearGradient data-v-423bf9ae="" gradientTransform="rotate(25)" id="68042a52-1874-4db7-ab7d-cdcbab26fa8e" x1="0%" y1="0%" x2="100%" y2="0%"><stop data-v-423bf9ae="" offset="0%" style="stop-color: rgb(1, 105, 90); stop-opacity: 1;"></stop><stop data-v-423bf9ae="" offset="100%" style="stop-color: rgb(44, 194, 111); stop-opacity: 1;"></stop></linearGradient></defs><g data-v-423bf9ae="" id="923a31b5-c5aa-475b-9928-751daf0c0cc0" transform="matrix(1.2903225421905518,0,0,1.2903225421905518,-12.614255905151367,-19.39112663269043)" stroke="none" fill="url(#68042a52-1874-4db7-ab7d-cdcbab26fa8e)"><path d="M82.062 15.125H17.838a8 8 0 0 0-8 8v42.983a8 8 0 0 0 8 8h64.225a8 8 0 0 0 8-8V23.125a8.002 8.002 0 0 0-8.001-8zm0 50.983H17.838V23.125h64.225v42.983zM85.799 76.875H14.102a4 4 0 0 0 0 8h71.697a4 4 0 0 0 0-8z"></path></g><!----></svg>